<?xml version="1.0" encoding="UTF-8" standalone="no"?>
<!-- Created with Inkscape (http://www.inkscape.org/) -->

<svg
   width="500"
   height="178"
   viewBox="0 0 132.29173 47.09586"
   version="1.1"
   id="svg1"
   xmlns="http://www.w3.org/2000/svg"
   xmlns:svg="http://www.w3.org/2000/svg">
  <defs
     id="defs1" />
  <g
     id="layer1">
    <path
       style="fill:#ee7a5f;fill-opacity:1;stroke-width:10.2216;stroke-dasharray:none"
       d="m 2.9664588,40.49046 127.2857312,0.200522 -0.007,0.502257 L 2.9591304,40.992716 Z"
       id="path9" />
    <g
       id="g11">
      <path
         style="font-size:23.2461px;font-family:Redland;-inkscape-font-specification:Redland;text-align:center;text-anchor:middle;fill:#ee7a5f;stroke-width:1.9372"
         d="M 49.792223,6.6487339 C 49.373793,5.7886282 48.792641,5.0215069 48.072012,4.3706162 46.561015,2.9526041 44.585097,2.1622367 42.53944,2.1622367 v 0 c 1.046075,0 2.068903,0.3486915 2.905763,0.9763362 0.697383,0.5346603 1.232043,1.2320433 1.603981,1.9991645 0.325445,0.697383 0.557906,1.4412582 0.674136,2.2083795 0.232461,1.5342425 0.232461,3.0684851 0,4.6027281 -0.11623,0.767121 -0.348691,1.48775 -0.674136,2.185133 -0.348692,0.790367 -0.906598,1.464504 -1.580735,1.999164 -0.83686,0.627645 -1.836442,0.999583 -2.882517,0.999583 h -0.04649 v 0.02325 c 1.069321,-0.02325 2.115395,-0.232461 3.114978,-0.650891 0.883351,-0.371938 1.720211,-0.906598 2.417594,-1.580735 0.720629,-0.65089 1.301781,-1.418012 1.720211,-2.278117 0.906598,-1.882934 0.906598,-4.0913139 0,-5.9974941 z M 40.865721,13.390103 V 2.1622367 l -4.137806,-0.023246 v 0.023246 c 0.860106,0 1.557489,0.697383 1.557489,1.5574887 v 9.6703776 c 0.02325,1.046074 0.488168,2.02241 1.255289,2.719793 0.371938,0.371938 0.813614,0.650891 1.301782,0.813614 0.441676,0.162723 0.883352,0.232461 1.348274,0.209215 0.09298,0 0.139476,0 0.162722,0 h 0.02325 v 0 c 0,0 -0.02325,0 -0.02325,0 -1.48775,-0.04649 -1.48775,-3.045239 -1.48775,-3.742622 z m 10.855952,1.603981 c 0,-0.255707 0.04649,-0.511415 0.11623,-0.743876 v 0 c -0.41843,1.232044 -1.882934,2.882517 -3.184715,2.882517 v 0.02325 H 53.0467 v -0.02325 c -0.836859,0 -1.325027,-1.139059 -1.325027,-2.138641 z m 8.810271,0.511414 -4.579481,-13.3432613 v -0.023246 l -1.348274,3.9983291 v 0 l 3.184716,9.3681782 c 0.139476,0.371937 0.06974,0.790367 -0.162723,1.115813 -0.232461,0.325445 -0.604399,0.511414 -0.999582,0.511414 v 0.02325 h 6.183462 v -0.02325 c -1.022828,0 -1.952672,-0.650891 -2.278118,-1.627227 z M 65.646082,3.1385729 C 65.134667,2.7201431 64.507023,2.4179438 63.832886,2.2552211 63.205241,2.1157445 62.531104,2.1157445 61.880213,2.231975 61.206077,2.3714516 60.555186,2.5574204 59.927541,2.8363736 v 0 c 0.604399,-0.2557071 1.301782,-0.3254454 1.952672,-0.2092149 0.534661,0.1162305 1.022829,0.3951837 1.394766,0.7903674 0.3022,0.3254454 0.557907,0.7206291 0.72063,1.1390588 0.185968,0.3951837 0.325445,0.7903674 0.488168,1.2320433 l 4.532989,12.0647258 1.37152,-3.69613 -3.486915,-9.2751937 C 66.645664,4.2078935 66.227234,3.6034949 65.646082,3.1385729 Z m 7.299275,-0.9995823 v 0 0 c 0.95309,0 0.929844,2.6268092 0.604398,3.510161 V 5.6259056 C 73.944939,4.556585 75.641904,2.1389907 76.804209,2.1389907 v 0 0 z m 8.856751,0.023246 v -0.023246 h -5.695294 v 0.023246 c 0.860106,0 1.557489,0.697383 1.557489,1.5574887 v 9.6703777 c 0.02325,1.046074 0.488168,2.02241 1.255289,2.719793 0.371938,0.371938 0.813613,0.650891 1.301782,0.813614 0.441675,0.162723 0.883351,0.232461 1.348273,0.209215 0.09298,0.02325 0.139477,0 0.162723,0 h 0.02325 v 0 c 0,0 -0.02325,0 -0.02325,0 -1.48775,-0.04649 -1.48775,-3.045239 -1.48775,-3.742622 V 3.7197254 c 0,-0.4184298 0.162722,-0.8136135 0.464922,-1.1158128 0.278953,-0.2789532 0.697383,-0.4416759 1.092566,-0.441676 z M 94.633971,6.6487339 C 94.215541,5.7886282 93.634388,5.0215069 92.913759,4.3706162 91.402763,2.9526041 89.426844,2.1622367 87.381187,2.1622367 v 0 c 1.046075,0 2.068903,0.3486915 2.905763,0.9763362 0.697383,0.5346603 1.232043,1.2320433 1.603981,1.9991645 0.325445,0.697383 0.557906,1.4412582 0.674137,2.2083795 0.232461,1.5342425 0.232461,3.0684851 0,4.6027281 -0.116231,0.767121 -0.348692,1.48775 -0.674137,2.185133 -0.348692,0.790367 -0.906598,1.464504 -1.580735,1.999164 -0.83686,0.627645 -1.836442,0.999583 -2.882516,0.999583 h -0.04649 v 0.02325 c 1.069321,-0.02325 2.115396,-0.232461 3.114978,-0.650891 0.883352,-0.371938 1.720211,-0.906598 2.417594,-1.580735 0.720629,-0.65089 1.301782,-1.418012 1.720212,-2.278117 0.906597,-1.882934 0.906597,-4.0913139 0,-5.9974941 z M 85.707468,13.390103 V 2.1622367 l -4.137805,-0.023246 v 0.023246 c 0.860105,0 1.557488,0.697383 1.557488,1.5574887 v 9.6703776 c 0.02325,1.046074 0.488168,2.02241 1.25529,2.719793 0.371937,0.371938 0.813613,0.650891 1.301781,0.813614 0.441676,0.162723 0.883352,0.232461 1.348274,0.209215 0.09298,0 0.139477,0 0.162723,0 h 0.02325 v 0 c 0,0 -0.02325,0 -0.02325,0 -1.487751,-0.04649 -1.487751,-3.045239 -1.487751,-3.742622 z"
         id="text1"
         aria-label="DAVID" />
      <path
         d="m 23.393262,35.094382 v -0.18959 c -0.02708,-0.108337 -0.02708,-0.243758 -0.02708,-0.352096 -0.05417,-0.243758 -0.08125,-0.460433 -0.135422,-0.704191 -0.05417,-0.216675 -0.135421,-0.433349 -0.216674,-0.650024 -0.108337,-0.216674 -0.216674,-0.406264 -0.297927,-0.622938 -0.460433,-0.758361 -1.083372,-1.408384 -1.841733,-1.841733 -0.731276,-0.433349 -1.543805,-0.704192 -2.356334,-0.839613 -0.893781,-0.135422 -1.760479,-0.18959 -2.654261,-0.162506 0.595855,-0.02708 1.137541,-0.02708 1.679227,-0.05417 0.56877,0 1.110456,-0.108338 1.652142,-0.243759 0.595854,-0.18959 1.13754,-0.514602 1.570889,-0.975035 0.108337,-0.108337 0.216675,-0.243759 0.297928,-0.406264 0.108337,-0.135422 0.18959,-0.297928 0.243758,-0.487518 0.08125,-0.162506 0.135422,-0.352096 0.162506,-0.541686 0.02708,-0.08125 0.02708,-0.18959 0.05417,-0.297927 0,-0.08125 0,-0.162506 0,-0.243759 0,-0.108337 0,-0.18959 0,-0.270843 -0.02708,-0.108337 -0.02708,-0.216674 -0.05417,-0.297927 -0.02708,-0.18959 -0.08125,-0.37918 -0.162506,-0.541686 -0.05417,-0.18959 -0.135421,-0.352096 -0.243758,-0.487517 -0.08125,-0.162506 -0.189591,-0.297928 -0.297928,-0.406265 -0.433349,-0.460433 -0.975035,-0.785445 -1.570889,-0.94795 -0.541686,-0.162506 -1.083372,-0.270843 -1.652142,-0.270843 -0.541686,-0.02708 -1.110457,-0.02708 -1.706311,-0.05417 v 0.02708 c 0,0 0.02708,0 0.08125,0 0.514601,0 1.056287,0.162506 1.489636,0.460433 0.18959,0.135422 0.352096,0.270843 0.487518,0.433349 0.05417,0.05417 0.08125,0.108337 0.108337,0.135422 l 0.02708,0.02708 c 0,0.02708 0.02708,0.05417 0.05417,0.08125 0.02708,0.02708 0.05417,0.05417 0.05417,0.08125 0.37918,0.595854 0.568771,1.300046 0.541686,2.031322 0.02708,0.595855 -0.108337,1.191709 -0.37918,1.733395 -0.05417,0.108338 -0.108337,0.189591 -0.162506,0.297928 -0.18959,0.270843 -0.433349,0.541686 -0.731276,0.731276 -0.433349,0.297927 -0.975035,0.460433 -1.516721,0.460433 -0.02708,0 -0.05417,0 -0.05417,0 v 0.02708 0 0 c 0.866697,-0.02708 1.733395,0.18959 2.51884,0.622939 0.622939,0.325012 1.13754,0.839613 1.489636,1.462552 0.270843,0.514602 0.433349,1.083372 0.487517,1.679227 0.02708,0.135421 0.02708,0.270843 0.05417,0.406264 -0.02708,0.135422 0,0.270843 0,0.433349 0,0.297927 0,0.595855 0,0.893782 0.02708,0.595854 0,1.164625 -0.05417,1.760479 -0.05417,0.568771 -0.243758,1.137541 -0.514601,1.652143 -0.352096,0.595854 -0.866698,1.110456 -1.489637,1.435467 -0.75836,0.406265 -1.625058,0.622939 -2.491755,0.595855 h -0.05417 v 0.02708 c 0.893782,0 1.787564,-0.05417 2.681346,-0.162505 0.839613,-0.108338 1.625058,-0.379181 2.383418,-0.785445 0.758361,-0.460433 1.408384,-1.083372 1.841733,-1.841732 0.460433,-0.812529 0.704191,-1.733396 0.704191,-2.681346 z m -9.560757,1.218794 V 23.231459 l -4.7397526,-0.02708 v 0.02708 c 0.9479506,0 1.7333956,0.758361 1.7333956,1.733396 v 11.348321 c 0.02708,1.218793 0.541685,2.356334 1.462552,3.168863 0.433348,0.433349 0.94795,0.75836 1.51672,0.94795 0.514602,0.18959 1.029204,0.270843 1.57089,0.243759 0.108337,0 0.162506,0 0.18959,0 h 0.02708 v 0 c 0,0 -0.02708,0 -0.02708,0 -1.733395,-0.05417 -1.733395,-3.548043 -1.733395,-4.360572 z m 23.346685,8.639891 c -0.18959,-0.02708 -0.406265,-0.08125 -0.56877,-0.162506 -0.297928,-0.162505 -0.514602,-0.37918 -0.677108,-0.677107 -0.162506,-0.243759 -0.243759,-0.514602 -0.270843,-0.812529 -0.08125,-0.56877 -0.05417,-1.110456 0.02708,-1.679227 0.135422,-1.083371 0.379181,-2.193828 0.216675,-3.493874 -0.08125,-0.75836 -0.270843,-1.489637 -0.595855,-2.166744 -0.325011,-0.677108 -0.731276,-1.300046 -1.218793,-1.868817 -0.514602,-0.56877 -1.110457,-1.083372 -1.76048,-1.462552 -0.162506,-0.108337 -0.352096,-0.18959 -0.541686,-0.270843 -0.162505,-0.08125 -0.352096,-0.162506 -0.541686,-0.216674 -0.406264,-0.135422 -0.839613,-0.216675 -1.245877,-0.243759 0.650023,0 1.300046,-0.08125 1.950069,-0.216674 0.622939,-0.135422 1.218794,-0.37918 1.76048,-0.704192 0.595854,-0.325012 1.083371,-0.812529 1.435467,-1.354215 0.216675,-0.297927 0.352096,-0.622939 0.460433,-0.975035 0.05417,-0.18959 0.08125,-0.352096 0.108338,-0.541686 0.02708,-0.108337 0.02708,-0.18959 0.02708,-0.297927 0.02708,-0.08125 0.02708,-0.18959 0.02708,-0.243759 0,-0.08125 0,-0.18959 -0.02708,-0.270843 0,-0.108337 0,-0.18959 -0.02708,-0.297927 -0.02709,-0.18959 -0.05417,-0.352096 -0.108338,-0.541686 C 35.499963,26.129479 35.364542,25.777384 35.147867,25.479456 34.795771,24.93777 34.308254,24.450253 33.7124,24.125241 33.170714,23.80023 32.574859,23.556471 31.95192,23.421049 31.301897,23.285628 30.651874,23.204375 30.001851,23.204375 v 0 c 0.622938,0 1.245877,0.243759 1.760479,0.650023 0.37918,0.325012 0.677107,0.785445 0.839613,1.272962 0.135422,0.406265 0.18959,0.839614 0.18959,1.272962 0,0.18959 0,0.379181 -0.02708,0.568771 0,0.08125 0,0.18959 0,0.270843 0,0.05417 0,0.108337 0,0.135421 0,0.05417 0,0.108337 0,0.18959 0,0.05417 0,0.108337 0,0.162506 0,0.05417 0,0.08125 0,0.135422 0,0.08125 0,0.18959 0,0.270843 0.02708,0.18959 0.02708,0.37918 0.02708,0.56877 0,0.433349 -0.05417,0.866697 -0.18959,1.272962 -0.162506,0.487517 -0.460433,0.94795 -0.839613,1.272962 -0.487517,0.406264 -1.110456,0.650023 -1.733395,0.650023 h -0.02708 v 0 c 0.406264,0.02708 0.812529,0.135422 1.191709,0.352096 0.162506,0.108337 0.325011,0.216674 0.460433,0.325012 0.135421,0.135421 0.243758,0.270843 0.37918,0.406264 0.37918,0.514602 0.622939,1.137541 0.704192,1.787564 0.08125,0.595854 0.108337,1.191709 0.108337,1.787564 0,0.650023 0.02708,1.272962 0.08125,1.8959 0.135421,1.218794 0.487517,2.383419 1.002119,3.493875 0.270843,0.595855 0.595855,1.164625 0.975035,1.679227 0.37918,0.595854 0.975034,1.056287 1.652142,1.272962 0.18959,0.05417 0.406264,0.08125 0.595855,0.08125 0.216674,0 0.433348,0 0.650023,0 h 0.02708 v 0 c -0.216674,0 -0.433349,0 -0.650023,-0.02708 z m -7.55652,-4.306403 c -1.760479,0 -1.760479,-3.520959 -1.760479,-4.360572 V 23.204375 h -4.550162 v 0 c 0.839613,0 1.543805,0.704192 1.543805,1.570889 v 11.537912 c 0.05417,1.191709 0.56877,2.356334 1.462552,3.168863 0.433349,0.406264 0.94795,0.731276 1.516721,0.94795 0.595854,0.18959 1.191709,0.270843 1.787563,0.243759 v 0 c -0.108337,0 -0.216674,0 -0.325011,-0.02708 0.108337,0.02708 0.216674,0.02708 0.325011,0 z m 10.129507,-2.464671 c 0,-0.297928 0.05417,-0.595855 0.135422,-0.866698 v 0 c -0.487518,1.435468 -2.193828,3.358453 -3.710549,3.358453 v 0.02708 h 5.118932 v -0.02708 c -0.975034,0 -1.543805,-1.327131 -1.543805,-2.491755 z m 10.26495,0.595854 -5.335607,-15.546388 v -0.02708 l -1.57089,4.6585 v 0 l 3.710549,10.914972 c 0.162506,0.433349 0.08125,0.920866 -0.18959,1.300046 -0.270843,0.379181 -0.704191,0.595855 -1.164625,0.595855 v 0.02708 h 7.204424 v -0.02708 c -1.191709,0 -2.275081,-0.75836 -2.654261,-1.895901 z M 66.02396,28.458729 c -0.487518,-1.002119 -1.164625,-1.895901 -2.004238,-2.654261 -1.76048,-1.652142 -4.062645,-2.573009 -6.446064,-2.573009 v 0 c 1.218794,0 2.410503,0.406265 3.385538,1.137541 0.812529,0.622939 1.435468,1.435468 1.868816,2.32925 0.379181,0.812529 0.650024,1.679226 0.785445,2.573008 0.270843,1.787564 0.270843,3.575128 0,5.362691 -0.135421,0.893782 -0.406264,1.733395 -0.785445,2.545924 -0.406264,0.920867 -1.056287,1.706311 -1.841732,2.32925 -0.975035,0.731276 -2.13966,1.164625 -3.358453,1.164625 h -0.05417 v 0.02708 c 1.245878,-0.02708 2.464672,-0.270843 3.629296,-0.75836 1.029204,-0.433349 2.004239,-1.056288 2.816768,-1.841732 0.839613,-0.758361 1.51672,-1.652143 2.004238,-2.654262 1.056287,-2.193828 1.056287,-4.766836 0,-6.987749 z M 55.623589,36.313176 V 23.231459 l -4.821005,-0.02708 v 0.02708 c 1.002119,0 1.814648,0.812529 1.814648,1.814648 v 11.267069 c 0.02708,1.218793 0.56877,2.356334 1.462552,3.168863 0.433349,0.433349 0.94795,0.75836 1.516721,0.94795 0.514601,0.18959 1.029203,0.270843 1.570889,0.243759 0.108337,0 0.162506,0 0.18959,0 h 0.02708 v 0 c 0,0 -0.02708,0 -0.02708,0 -1.733395,-0.05417 -1.733395,-3.548043 -1.733395,-4.360572 z m 27.057219,-7.502351 c -0.406265,-0.94795 -0.947951,-1.814648 -1.597974,-2.600093 -0.704192,-0.785444 -1.489636,-1.462552 -2.410503,-2.004238 -0.975034,-0.595854 -2.112575,-0.893782 -3.2772,-0.920866 -1.13754,0.02708 -2.275081,0.325012 -3.2772,0.920866 -0.893782,0.541686 -1.706311,1.218794 -2.383418,2.004238 -0.677108,0.785445 -1.218794,1.652143 -1.597974,2.600093 -0.839613,2.031322 -0.839613,4.306404 0,6.36481 0.37918,0.947951 0.920866,1.814648 1.597974,2.573009 0.677107,0.812529 1.489636,1.489636 2.383418,2.004238 1.002119,0.595854 2.13966,0.920866 3.2772,0.94795 1.164625,-0.02708 2.302166,-0.352096 3.2772,-0.94795 0.920867,-0.514602 1.706311,-1.191709 2.410503,-2.004238 0.650023,-0.758361 1.191709,-1.625058 1.597974,-2.600093 0.839613,-2.031322 0.839613,-4.306404 0,-6.337726 z m -2.464672,5.714787 c -0.05417,0.839613 -0.18959,1.679227 -0.433348,2.464671 -0.270843,0.893782 -0.731276,1.706311 -1.3813,2.383419 -0.75836,0.812529 -1.814648,1.300046 -2.952188,1.32713 h -0.05417 v 0 c -1.13754,-0.02708 -2.193828,-0.487517 -2.979273,-1.32713 -0.650023,-0.677108 -1.110456,-1.489637 -1.381299,-2.383419 -0.243759,-0.785444 -0.406264,-1.625058 -0.433349,-2.464671 -0.08125,-0.812529 -0.08125,-1.652142 -0.108337,-2.545924 0.02708,-0.893782 0.02708,-1.706311 0.108337,-2.545924 0.02708,-0.839613 0.18959,-1.652142 0.433349,-2.464671 0.270843,-0.866698 0.731276,-1.679227 1.354215,-2.356334 0.75836,-0.812529 1.841732,-1.300047 2.952189,-1.327131 h 0.05417 v 0 c 1.137541,0.02708 2.220913,0.487517 3.006357,1.300046 0.622939,0.677108 1.110457,1.489637 1.3813,2.383419 0.243758,0.812529 0.37918,1.625058 0.433348,2.464671 0.05417,0.839613 0.08125,1.652142 0.08125,2.545924 0,0.893782 -0.02708,1.733395 -0.08125,2.545924 z m 4.604356,2.166744 h -0.02708 c 0,1.570889 -1.272962,4.062645 -2.843852,4.062645 v 0 h 5.714787 v 0 c -1.570889,0 -2.843851,-2.491756 -2.843851,-4.062645 z m 7.394014,-13.379644 v 0 c 1.245877,0 2.247997,2.220913 2.247997,3.439706 v 0 c 0,-1.218793 1.002119,-3.439706 2.247996,-3.439706 v 0 0 z m -4.685584,1.408384 c -0.02708,-0.05417 -0.05417,-0.08125 -0.108337,-0.135422 -0.05417,-0.08125 -0.08125,-0.135421 -0.135422,-0.18959 -0.08125,-0.108337 -0.18959,-0.216674 -0.297927,-0.297927 -0.216674,-0.18959 -0.460433,-0.352096 -0.731276,-0.460433 -0.514602,-0.243759 -1.056288,-0.352096 -1.625058,-0.297927 -0.514602,0.05417 -1.002119,0.18959 -1.462552,0.433348 -0.460433,0.243759 -0.893782,0.487518 -1.300047,0.758361 v 0 c 0.108338,-0.05417 0.243759,-0.108337 0.379181,-0.135422 -0.135422,0.02709 -0.270843,0.08125 -0.379181,0.135422 l 0.379181,-0.108337 0.135421,-0.05417 h 0.05417 c 1.32713,-0.08125 2.491755,1.868817 2.491755,1.868817 l 0.08125,0.135421 9.452421,14.435932 v 0 -5.498113 0 z M 99.44604,38.181993 c 0,-0.297928 0.05417,-0.595855 0.135422,-0.866698 v 0 c -0.487518,1.435468 -2.193828,3.358453 -3.710549,3.358453 v 0.02708 h 5.118937 v -0.02708 c -0.97504,0 -1.54381,-1.327131 -1.54381,-2.491755 z m 10.26495,0.595854 -5.33561,-15.546388 v -0.02708 l -1.57089,4.6585 v 0 l 3.71055,10.914972 c 0.16251,0.433349 0.0813,0.920866 -0.18959,1.300046 -0.27084,0.379181 -0.70419,0.595855 -1.16462,0.595855 v 0.02708 h 7.20442 v -0.02708 c -1.19171,0 -2.27508,-0.75836 -2.65426,-1.895901 z m 4.57724,1.191709 c 1.05629,0 1.92298,-0.866697 1.92298,-1.922985 0,-1.056288 -0.86669,-1.922985 -1.92298,-1.922985 -1.05629,0 -1.8959,0.866697 -1.8959,1.922985 0,1.056288 0.83961,1.922985 1.8959,1.922985 z m 8.53155,-5.579365 c -0.27084,-0.622939 -0.70419,-1.164625 -1.19171,-1.625058 -0.24376,-0.216675 -0.46043,-0.406265 -0.70419,-0.568771 l -0.32501,-0.270843 c -0.10834,-0.08125 -0.21667,-0.162505 -0.32501,-0.243758 -0.48752,-0.325012 -1.00212,-0.622939 -1.51672,-0.920866 -1.00212,-0.541686 -1.86882,-0.920867 -2.62718,-1.408384 -0.73128,-0.460433 -1.35421,-0.975035 -1.65214,-1.760479 -0.3521,-0.947951 -0.21668,-1.977154 0.32501,-2.816768 0.32501,-0.487517 0.78544,-0.893781 1.32713,-1.13754 0.59586,-0.297927 1.27296,-0.433349 1.95007,-0.406265 v -0.02708 c -0.67711,0 -1.35421,0.108337 -2.00424,0.297927 -0.59585,0.216675 -1.16462,0.541686 -1.62506,0.975035 -0.46043,0.406265 -0.83961,0.920866 -1.08337,1.516721 -0.24376,0.56877 -0.37918,1.191709 -0.37918,1.814648 0,0.650023 0.13542,1.300046 0.43335,1.895901 0.24376,0.56877 0.59586,1.083372 1.0292,1.570889 0.83962,0.866698 1.81465,1.597974 2.87094,2.13966 0.5146,0.270843 1.00212,0.514602 1.46255,0.731276 l 0.70419,0.352096 c 0.21668,0.108337 0.43335,0.18959 0.62294,0.297927 0.32501,0.162506 0.65003,0.37918 0.92087,0.622939 0.27084,0.270843 0.48752,0.650023 0.59585,1.029203 0.32501,0.920867 0.16251,1.977154 -0.43335,2.762599 -0.65002,0.893782 -1.92298,1.462552 -3.30428,1.462552 h -0.0812 v 0.02708 c 0.6771,0 1.35421,-0.108337 2.00424,-0.297927 0.29792,-0.08125 0.59585,-0.18959 0.89378,-0.325012 0.29792,-0.162505 0.54168,-0.325011 0.81253,-0.514601 0.48751,-0.37918 0.89378,-0.893782 1.16462,-1.462552 0.27084,-0.568771 0.40627,-1.164625 0.46043,-1.787564 0.0271,-0.650023 -0.0812,-1.327131 -0.32501,-1.922985 z m -4.38765,-11.158732 c 0,0 -0.0271,0 -0.0271,0 0.0812,0 0.16251,0 0.24376,0.02708 0.32501,0.02708 0.62294,0.135421 0.92087,0.270843 0.0271,0.02708 0.0812,0.02708 0.10833,0.05417 0.0542,0.02708 0.0813,0.02708 0.13543,0.05417 0.0542,0.05417 0.13542,0.108337 0.21667,0.135421 0.13542,0.108338 0.29793,0.216675 0.43335,0.325012 0.0542,0.05417 0.10834,0.108337 0.18959,0.162506 0.0542,0.05417 0.10834,0.135421 0.1625,0.18959 0.29793,0.297927 0.54169,0.595854 0.75836,0.94795 0.10834,0.108338 0.18959,0.243759 0.27085,0.379181 0.0271,0.05417 0.0812,0.135421 0.10833,0.216674 0.0813,0.108337 0.13543,0.216674 0.18959,0.325011 0.0813,0.135422 0.13543,0.270843 0.18959,0.379181 0.13543,0.270843 0.21668,0.514601 0.27085,0.650023 0,0 0,0 0,0 0.0271,0.08125 0.0542,0.135421 0.0542,0.162506 0,0.02708 0,0.02708 0,0.02708 0,0 0.0271,0 0.0271,0.02708 v 0 -4.360572 0.02708 c -0.0812,0.135422 -0.18959,0.243759 -0.29793,0.352096 -0.0813,0.08125 -0.18959,0.108337 -0.29792,0.135422 -0.0271,0 -0.0542,0 -0.0813,0 -0.24376,0 -0.5146,-0.05417 -0.75836,-0.108337 -0.10833,0 -0.21667,-0.02708 -0.35209,-0.05417 -0.54169,-0.108337 -1.16463,-0.216674 -1.7334,-0.297927 -0.27084,-0.02708 -0.54168,-0.02708 -0.81253,-0.02708 v 0 c 0,0 0.0271,0 0.0813,0 -0.0542,0 -0.13543,0 -0.18959,0 h -0.0271 0.0271 c 0.0542,0 0.13542,0 0.18959,0 z"
         id="text3"
         style="font-size:27.0843px;font-family:Redland;-inkscape-font-specification:Redland;text-align:center;text-anchor:middle;fill:#ee7a5f;stroke-width:2.25702"
         aria-label="BRADONAS" />
      <path
         style="fill:#ee7a5f;fill-opacity:1;stroke-width:7.97881;stroke-dasharray:none"
         d="m 45.543786,22.399891 0.88761,-2.594553 1.249482,0.416494 z"
         id="path11" />
    </g>
  </g>
</svg>
